<svg width="1883" height="325" viewBox="0 0 1883 325" fill="none" xmlns="http://www.w3.org/2000/svg">
<g clip-path="url(#clip0_240_17)">
<path d="M1858.32 285.84C1852 278.62 1845.67 267.33 1839.35 251.97L1733.68 2.26001H1678.59L1693.5 38.39L1606.34 251.08C1599.42 267.34 1592.64 278.93 1586.02 285.85C1585.19 286.72 1584.16 287.58 1582.99 288.44C1569.24 298.5 1550.52 298.02 1536.71 288.04C1535.51 287.18 1534.34 286.28 1533.19 285.35C1525.36 279.03 1516.48 269.24 1506.55 256L1434.75 162.98C1456.72 159.07 1474.03 150.03 1486.68 135.89C1499.62 121.74 1506.1 104.58 1506.1 84.41C1506.1 59.42 1496.46 39.86 1477.19 25.71C1458.23 11.56 1432.64 4.79001 1400.43 5.39001L1331.34 6.74001H1258.64V27.51C1273.39 28.41 1283.32 31.12 1288.44 35.64C1293.86 39.85 1296.57 47.98 1296.57 60.02V265.03C1296.57 276.77 1293.86 284.9 1288.44 289.42C1283.32 293.94 1273.39 296.64 1258.64 297.55V318.32H1396.82V297.55C1383.57 296.95 1373.64 295.59 1367.01 293.49C1360.39 291.38 1355.87 288.22 1353.47 284.01C1351.06 279.8 1349.85 273.47 1349.85 265.04V171.11H1382.37L1484.87 318.32H1559.83V318.37H1666.85V298.5C1650.9 297.6 1639.91 295.79 1633.89 293.08C1628.17 290.37 1625.31 285.85 1625.31 279.53C1625.31 275.01 1627.11 267.79 1630.73 257.85L1648.79 212.24H1765.29L1782 253.33C1787.12 266.58 1789.68 275.61 1789.68 280.42C1789.68 286.44 1786.97 290.96 1781.55 293.97C1776.13 296.68 1766.35 298.19 1752.2 298.49V318.36H1882.25V298.94C1872.92 297.13 1864.94 292.77 1858.32 285.84ZM1385.98 148.51H1349.85V29.3H1387.78C1407.95 29.3 1423.31 34.27 1433.84 44.2C1444.68 54.13 1450.1 68.28 1450.1 86.65C1450.1 106.22 1444.53 121.42 1433.39 132.26C1422.25 143.1 1406.45 148.52 1385.98 148.52V148.51ZM1659.18 187.4L1706.59 69.09L1754.91 187.4H1659.18Z" fill="white"/>
<path d="M1186.21 15.8C1166.34 5.26 1143.62 0 1118.03 0C1081 0 1048.18 9.78 1019.58 29.35C991.29 48.92 969.46 74.06 954.11 104.76C938.76 135.17 931.08 166.17 931.08 197.78C931.08 223.97 936.8 246.7 948.24 265.97C959.68 284.94 975.33 299.54 995.2 309.77C1015.37 319.7 1037.95 324.67 1062.93 324.67C1099.66 324.67 1132.18 315.04 1160.47 295.77C1189.07 276.2 1211.2 251.37 1226.85 221.26C1242.51 190.85 1250.34 160.15 1250.34 129.14C1250.34 102.95 1244.62 80.22 1233.18 60.95C1222.04 41.38 1206.38 26.33 1186.21 15.79V15.8ZM1180.34 202.75C1168.3 231.35 1151.74 254.83 1130.67 273.19C1109.9 291.55 1087.02 300.74 1062.03 300.74C1037.04 300.74 1016.42 292.31 1002.88 275.45C989.63 258.59 983.01 235.56 983.01 206.36C983.01 178.66 988.88 150.67 1000.62 122.37C1012.66 93.77 1029.07 70.29 1049.84 51.93C1070.91 33.27 1093.94 23.93 1118.93 23.93C1143.92 23.93 1164.54 32.51 1178.08 49.67C1191.63 66.53 1198.41 88.81 1198.41 116.5C1198.41 144.19 1192.38 173.85 1180.34 202.75Z" fill="white"/>
<path d="M876.8 255.99L805 162.97C826.98 159.06 844.29 150.02 856.93 135.88C869.88 121.73 876.35 104.57 876.35 84.4C876.35 59.41 866.72 39.85 847.45 25.7C828.48 11.55 802.89 4.77999 770.68 5.37999L701.59 6.72999H628.89V6.76999H521.17V27.54C534.12 28.14 543.9 29.5 550.52 31.6C557.14 33.71 561.66 37.02 564.07 41.53C566.78 46.05 568.13 52.37 568.13 60.5V191.45C568.13 256.48 539.83 288.99 483.24 288.99C454.94 288.99 433.42 281.01 418.67 265.06C404.22 248.8 397 225.32 397 194.61V60.5C397 52.37 398.2 46.05 400.61 41.53C403.02 37.01 407.53 33.7 414.16 31.6C421.09 29.19 431.02 27.84 443.96 27.54V6.76999H305.33V27.54C320.08 28.14 330.02 30.85 335.13 35.67C340.55 40.49 343.26 48.77 343.26 60.51V193.27C343.26 236.02 354.25 268.68 376.23 291.26C398.21 313.54 429.51 324.68 470.16 324.68C510.81 324.68 542.26 313.24 562.73 290.36C583.5 267.48 593.89 233.76 593.89 189.21V60.5C593.89 48.76 596.6 40.48 602.02 35.66C607.18 31.07 616.86 28.4 631.03 27.64C644.61 28.67 653.84 31.32 658.71 35.62C664.13 39.83 666.84 47.96 666.84 60V265.01C666.84 276.75 664.13 284.88 658.71 289.4C653.59 293.92 643.66 296.62 628.91 297.53V318.3H767.09V297.53C753.84 296.93 743.91 295.57 737.29 293.47C730.67 291.36 726.15 288.2 723.74 283.99C721.33 279.78 720.13 273.45 720.13 265.02V171.09H752.64L855.15 318.3H930.11V299.79C920.18 296.48 911.29 291.66 903.47 285.34C895.64 279.02 886.76 269.23 876.83 255.99H876.8ZM756.23 148.51H720.11V29.3H758.04C778.21 29.3 793.56 34.27 804.1 44.2C814.94 54.13 820.36 68.28 820.36 86.65C820.36 106.22 814.79 121.42 803.65 132.26C792.51 143.1 776.71 148.52 756.23 148.52V148.51Z" fill="white"/>
<path d="M298.49 285.84C292.17 278.62 285.85 267.33 279.52 251.97L173.85 2.26001H118.76L133.66 38.39L46.51 251.07C39.59 267.33 32.81 278.92 26.19 285.84C19.57 292.76 10.84 296.98 0 298.48V318.35H107.02V298.48C91.06 297.58 80.08 295.77 74.06 293.06C68.34 290.35 65.48 285.83 65.48 279.51C65.48 274.99 67.29 267.77 70.9 257.83L88.96 212.22H205.47L222.18 253.31C227.3 266.56 229.86 275.59 229.86 280.4C229.86 286.42 227.15 290.94 221.73 293.95C216.31 296.66 206.53 298.17 192.38 298.47V318.34H322.43V298.92C313.1 297.11 305.12 292.75 298.5 285.82L298.49 285.84ZM99.34 187.4L146.76 69.09L195.08 187.4H99.35H99.34Z" fill="white"/>
</g>
<defs>
<clipPath id="clip0_240_17">
<rect width="1882.25" height="324.68" fill="white"/>
</clipPath>
</defs>
</svg>
